<svg xmlns="http://www.w3.org/2000/svg" viewBox="0 0 28.694 31.954"><g id="Layer_2" data-name="Layer 2"><g id="Layer_14" data-name="Layer 14"><path d="M.145,1.38c.163.154.276.255.383.362Q7.466,8.678,14.41,15.608c.308.306.3.446,0,.749Q7.473,23.258.562,30.186c-.119.12-.245.232-.376.356C-.031,29.952-.076,2.336.145,1.38Z" fill="#fff"/><path d="M1.5,31.936c.154-.168.241-.27.336-.365q6.954-6.957,13.9-13.918c.282-.284.426-.3.711,0,1.208,1.263,2.444,2.5,3.668,3.745.107.108.245.2.288.376L10.686,27.3q-3.735,2.124-7.469,4.249A2.672,2.672,0,0,1,1.5,31.936Z" fill="#fff"/><path d="M1.6.013A2.692,2.692,0,0,1,3.247.435l14.8,8.421c.7.4,1.407.808,2.118,1.2.213.117.275.193.073.395C18.92,11.772,17.6,13.1,16.3,14.439c-.262.271-.365.073-.517-.079L8.119,6.685Q4.983,3.545,1.843.408A2.252,2.252,0,0,0,1.5.172Z" fill="#fff"/><path d="M28.694,15.986a2.082,2.082,0,0,1-1.212,1.738c-1.158.684-2.334,1.337-3.5,2-.509.29-1.026.567-1.526.873a.354.354,0,0,1-.52-.071q-2.134-2.155-4.29-4.291c-.221-.217-.186-.328.014-.525q2.145-2.11,4.265-4.244a.386.386,0,0,1,.565-.08c1.672.968,3.362,1.9,5.031,2.873A2.037,2.037,0,0,1,28.694,15.986Z" fill="#fff"/></g></g></svg>